# xmcd
#
# Track frame offsets:
#	150
#	14119
#	33935
#	49917
#	66120
#	83976
#	99609
#	116642
#	131384
#	148514
#	168903
#	184602
#	196394
#	211961
#	231427
#
# Disc length: 3222 seconds
#
# Revision: 1
# Processed by: cddbd v1.5.1PL2 Copyright (c) Steve Scherf et al.
# Submitted via: audiograbber 1.83.01
#
DISCID=d50c940f
DTITLE=Benita Hill - The Things That Are Real
DYEAR=2003
DGENRE=Blues
TTITLE0=Starting Over
TTITLE1=You Forgot That I Could Fly
TTITLE2=The Things That Are Real
TTITLE3=Sending You The Light Of My Love
TTITLE4=Even When It Rains
TTITLE5=The Words That Go Unsaid
TTITLE6=Just A Dream
TTITLE7=Something's Changing Everywhere
TTITLE8=I Am A Woman Of Power
TTITLE9=Love Is On The Way
TTITLE10=Learning To Love Herself Again
TTITLE11=The Bow
TTITLE12=Never Forget
TTITLE13=Found Again
TTITLE14=Holidays At Our House
EXTD=
EXTT0=
EXTT1=
EXTT2=
EXTT3=
EXTT4=
EXTT5=
EXTT6=
EXTT7=
EXTT8=
EXTT9=
EXTT10=
EXTT11=
EXTT12=
EXTT13=
EXTT14=
PLAYORDER=
